PathFileType	4	(X/Y/Z)	C:/Users/opensim2020/Desktop/walking_exp_matlab/subject06_walking19_straight_04.trc																																																																																																																																																	
DataRate	CameraRate	NumFrames	NumMarkers	Units	OrigDataRate	OrigDataStartFrame	OrigNumFrames																																																																																																																																													
100	100	6	49	mm	100	4586	340																																																																																																																																													
Frame#	Time	LFHD			RFHD			LBHD			RBHD			C7			T10			CLAV			STRN			RBAK			LSHO			LUPA			LELB			LFRM			LWRA			LWRB			LFIN			RSHO			RUPA			RELB			RFRM			RWRA			RWRB			RFIN			LASI			RASI			LPSI			RPSI			LTHI			LKNE			LTIB			LANK			LHEE			LTOE			RTHI			RKNE			RTIB			RANK			RHEE			RTOE			*39			*40			*41			*42			*43			*44			*45			*46			*47			*48		
		X1	Y1	Z1	X2	Y2	Z2	X3	Y3	Z3	X4	Y4	Z4	X5	Y5	Z5	X6	Y6	Z6	X7	Y7	Z7	X8	Y8	Z8	X9	Y9	Z9	X10	Y10	Z10	X11	Y11	Z11	X12	Y12	Z12	X13	Y13	Z13	X14	Y14	Z14	X15	Y15	Z15	X16	Y16	Z16	X17	Y17	Z17	X18	Y18	Z18	X19	Y19	Z19	X20	Y20	Z20	X21	Y21	Z21	X22	Y22	Z22	X23	Y23	Z23	X24	Y24	Z24	X25	Y25	Z25	X26	Y26	Z26	X27	Y27	Z27	X28	Y28	Z28	X29	Y29	Z29	X30	Y30	Z30	X31	Y31	Z31	X32	Y32	Z32	X33	Y33	Z33	X34	Y34	Z34	X35	Y35	Z35	X36	Y36	Z36	X37	Y37	Z37	X38	Y38	Z38	X39	Y39	Z39	X40	Y40	Z40	X41	Y41	Z41	X42	Y42	Z42	X43	Y43	Z43	X44	Y44	Z44	X45	Y45	Z45	X46	Y46	Z46	X47	Y47	Z47	X48	Y48	Z48	X49	Y49	Z49
																																																																																																																																																				
43	0.42	-945.69421	1651.35022	956.09186	-937.57965	1645.70483	1087.50085	-1077.38623	1591.73083	966.36566	-1066.43701	1590.62451	1095.46521	-1069.22107	1440.19177	1025.0332	-1108.82971	1112.63403	1032.95813	-960.29645	1361.62976	1022.93414	-925.50867	1183.84229	1019.56903	-1141.61389	1272.94226	1109.51404	-1020.40881	1391.66772	861.93555	-1052.46204	1190.90796	793.94403	-1073.34216	1080.31458	784.71381	-1065.42236	930.9704	758.35443	-1006.07953	812.69513	785.90021	-1074.53906	811.48682	764.43604	-1038.87695	727.45288	755.93982	-998.78876	1395.75256	1184.95325	-1039.04199	1201.09241	1279.521	-1032.56238	1079.6073	1294.95581	-1008.16119	962.17896	1311.67932	-937.63159	829.62128	1275.69336	-989.94629	826.06152	1319.39551	-945.9682	753.44623	1318.40491	-931.25342	952.01776	926.6239	-945.40521	948.82422	1145.55725	-1090.22656	980.43878	943.66748	-1093.69727	981.82892	1112.82043	-939.78528	645.11523	853.50964	-892.17017	493.09689	885.39423	-847.75055	241.79655	887.82367	-790.55914	77.63545	926.93439	-824.04706	51.1491	971.80566	-643.6731	88.95455	938.99469	-1044.36255	618.45374	1182.29736	-1065.37183	493.70505	1159.17493	-1185.47144	252.70151	1152.10864	-1258.68787	80.11973	1106.75964	-1307.0387	63.25928	1065.68408	-1113.87915	30.13034	1093.94202	-1044.51685	1687.82227	1020.15887	NaN	NaN	NaN	NaN	NaN	NaN	NaN	NaN	NaN	NaN	NaN	NaN	NaN	NaN	NaN	NaN	NaN	NaN	NaN	NaN	NaN	NaN	NaN	NaN	NaN	NaN	NaN
44	0.43	-939.14935	1650.47339	955.16083	-930.97119	1644.77808	1086.56079	-1070.90991	1590.87402	965.56079	-1059.95178	1589.77661	1094.65332	-1062.78894	1439.35144	1024.16431	-1102.51917	1111.76831	1031.96716	-953.68488	1360.64197	1022.19208	-918.9707	1182.90625	1018.76837	-1135.30237	1272.20654	1108.62683	-1013.93701	1390.81665	861.02777	-1046.60193	1190.12061	793.34418	-1067.72852	1079.55847	784.36108	-1060.21338	929.9729	758.49237	-1001.33667	811.70514	785.58984	-1069.97632	810.76434	764.55066	-1034.57397	726.49072	755.96722	-992.36169	1394.87549	1184.09094	-1032.68457	1200.26025	1278.67444	-1026.35706	1078.79224	1294.14978	-1002.07556	961.32251	1310.87048	-931.72205	828.70691	1274.79626	-983.89496	825.07275	1318.46338	-940.09369	752.53107	1317.50073	-924.57141	951.25739	926.00195	-939.12262	948.23163	1144.95667	-1083.5332	979.49963	942.58191	-1087.29333	980.90753	1111.7002	-933.34351	644.1803	853.13196	-885.992	492.08551	884.92542	-840.98743	240.84816	887.69818	-783.07654	77.02223	926.86096	-816.15094	50.36237	972.06537	-636.31024	89.00141	938.11163	-1038.58752	618.02557	1181.78564	-1060.10645	493.32578	1158.70752	-1183.02576	253.41025	1151.81628	-1258.04382	81.57761	1106.68713	-1306.43677	65.14695	1065.54956	-1114.02783	30.02804	1094.03162	-1037.99585	1686.96252	1019.34766	NaN	NaN	NaN	NaN	NaN	NaN	NaN	NaN	NaN	NaN	NaN	NaN	NaN	NaN	NaN	NaN	NaN	NaN	NaN	NaN	NaN	NaN	NaN	NaN	NaN	NaN	NaN
45	0.44	-932.68304	1649.64795	954.21051	-924.49805	1643.90002	1085.68896	-1064.39636	1590.01904	964.65021	-1053.15491	1588.89038	1093.49878	-1056.32117	1438.49377	1023.19379	-1096.10474	1110.93054	1030.92139	-947.23364	1359.71606	1021.20068	-912.65698	1182.10071	1017.92236	-1128.90137	1271.43787	1107.60486	-1007.38171	1389.98279	860.02936	-1040.49585	1189.30603	792.61029	-1061.94043	1078.8075	783.89087	-1055.10498	929.24561	757.89575	-996.25885	810.80389	785.26917	-1064.94287	809.87201	764.44507	-1029.82312	725.55444	755.88531	-985.95074	1394.04138	1183.17493	-1026.36902	1199.46252	1277.78931	-1020.16217	1077.99243	1293.26685	-996.0144	960.521	1310.02246	-925.71094	827.823	1273.91248	-978.05457	824.39484	1317.79224	-934.1806	751.64581	1316.65625	-917.64844	950.65002	925.3316	-932.62677	947.6062	1144.26233	-1076.64172	978.51672	941.58112	-1080.75879	979.99646	1110.70129	-926.63538	643.28888	852.79315	-879.69342	491.09915	884.53577	-834.75806	239.69759	887.52429	-776.86249	75.98905	926.82104	-809.7179	49.30775	972.28815	-630.20679	88.2667	937.09473	-1032.52551	617.47662	1181.09558	-1054.46094	492.86835	1158.1145	-1180.32654	254.21327	1151.51135	-1257.32715	83.15434	1106.62695	-1305.76587	67.19552	1065.37598	-1113.93372	29.99556	1094.01184	-1031.45044	1686.10913	1018.42242	NaN	NaN	NaN	NaN	NaN	NaN	NaN	NaN	NaN	NaN	NaN	NaN	NaN	NaN	NaN	NaN	NaN	NaN	NaN	NaN	NaN	NaN	NaN	NaN	NaN	NaN	NaN
46	0.45	-926.0567	1648.75061	953.27863	-917.93317	1643.026	1084.72058	-1057.76563	1589.11255	963.64856	-1046.79932	1588.02075	1092.77893	-1049.81763	1437.65881	1022.08826	-1089.51953	1110.02002	1029.80408	-940.67474	1358.81433	1020.21942	-906.15668	1181.27417	1016.99731	-1122.44543	1270.62915	1106.51868	-1000.68365	1389.16296	858.99176	-1034.23193	1188.49854	791.84052	-1056.01062	1078.08777	783.29865	-1049.67322	928.50836	757.48401	-991.03638	809.84875	784.97589	-1059.73755	809.07959	764.20624	-1024.76819	724.66223	755.75201	-979.48334	1393.20642	1182.14917	-1020.51917	1198.65601	1276.82898	-1013.96826	1077.2052	1292.32141	-989.90491	959.7005	1309.1012	-919.78497	826.92029	1273.06531	-971.95471	823.53363	1316.82153	-928.24927	750.78906	1315.80884	-910.60919	949.93738	924.63654	-925.91962	946.98981	1143.47925	-1069.60925	977.57312	940.62775	-1074.06909	979.05347	1109.74805	-919.8031	642.40247	852.55127	-873.1463	490.06177	884.17804	-828.96484	238.3821	887.2088	-771.90778	74.54374	926.66577	-804.69495	47.93609	972.3667	-625.36169	86.60762	936.07397	-1026.13989	616.89154	1180.56653	-1048.50989	492.29196	1157.49426	-1177.31189	254.93719	1151.20923	-1256.50586	84.83038	1106.56372	-1305.07922	69.40453	1065.25012	-1113.82959	29.96448	1093.9967	-1024.91223	1685.23706	1017.48651	NaN	NaN	NaN	NaN	NaN	NaN	NaN	NaN	NaN	NaN	NaN	NaN	NaN	NaN	NaN	NaN	NaN	NaN	NaN	NaN	NaN	NaN	NaN	NaN	NaN	NaN	NaN
47	0.46	-919.46075	1647.91296	952.31018	-911.37482	1642.13196	1083.72913	-1051.22339	1588.36584	962.58124	-1040.05701	1587.14978	1091.45935	-1043.24841	1436.80115	1020.91156	-1082.80811	1109.10657	1028.62244	-934.03705	1357.99963	1019.10284	-899.53571	1180.48621	1016.01917	-1115.87097	1269.71924	1105.24341	-993.92535	1388.36792	857.80707	-1027.79993	1187.72546	790.93365	-1049.86536	1077.32581	782.63055	-1043.7395	927.54614	757.40283	-985.46497	808.96698	784.5827	-1054.19128	808.29034	764.03107	-1019.49078	723.81708	755.573	-973.16656	1392.43591	1181.04102	-1014.3562	1197.85999	1275.66028	-1007.73975	1076.42261	1291.29968	-983.80988	958.91504	1308.14185	-913.78033	826.06134	1272.20972	-966.02802	822.68988	1315.97034	-922.41174	749.98383	1314.98584	-903.36859	949.30316	923.91235	-919.32825	946.26611	1142.68835	-1062.44983	976.55896	939.73608	-1067.1366	978.03217	1108.77502	-912.77478	641.47272	852.2179	-866.40869	489.0625	883.90472	-823.57666	236.88562	886.75507	-768.18994	72.64709	926.41754	-801.02386	46.14252	972.24255	-621.84241	84.08023	935.1178	-1019.62921	616.25128	1179.89624	-1042.2417	491.67514	1156.88306	-1174.00415	255.6653	1150.87964	-1255.60815	86.57669	1106.61011	-1304.30176	71.79783	1065.25842	-1113.67078	29.86249	1093.97412	-1018.30139	1684.41882	1016.48523	NaN	NaN	NaN	NaN	NaN	NaN	NaN	NaN	NaN	NaN	NaN	NaN	NaN	NaN	NaN	NaN	NaN	NaN	NaN	NaN	NaN	NaN	NaN	NaN	NaN	NaN	NaN
48	0.47	-912.77979	1647.11829	951.28381	-904.80139	1641.22437	1082.66772	-1044.5614	1587.55334	961.41083	-1033.52136	1586.26697	1090.30273	-1036.64478	1435.89868	1019.60999	-1075.92322	1108.17957	1027.41113	-927.3349	1357.18005	1017.96704	-892.69244	1179.73901	1015.01147	-1109.28406	1268.82092	1103.88501	-987.05151	1387.56665	856.59918	-1021.18921	1186.92383	789.93518	-1043.56567	1076.5481	781.84155	-1037.68481	926.72839	756.7868	-979.74707	808.05157	784.2132	-1048.42798	807.51575	763.75537	-1013.91418	722.99792	755.36951	-966.55347	1391.54639	1179.78235	-1007.84296	1197.16296	1274.60327	-1001.48053	1075.69946	1290.19202	-977.66968	958.16638	1307.1405	-907.7088	825.23206	1271.35291	-960.16357	822.05719	1315.24048	-916.46417	749.16162	1314.15283	-895.8335	948.59998	923.08655	-912.30865	945.6106	1141.84253	-1055.01416	975.53931	938.8147	-1060.04834	977.0473	1107.77234	-905.8089	640.57001	851.90265	-859.54279	487.95599	883.57764	-818.84119	235.17558	886.21552	-765.66083	70.37761	925.96625	-798.78772	44.25384	971.8125	-619.44305	80.73367	934.36407	-1012.87976	615.55536	1179.16003	-1035.69336	490.95413	1156.35291	-1170.51965	256.4122	1150.74353	-1254.48621	88.43325	1106.69885	-1303.40015	74.36968	1065.38574	-1113.60901	29.86202	1094.00354	-1011.65814	1683.54504	1015.39856	NaN	NaN	NaN	NaN	NaN	NaN	NaN	NaN	NaN	NaN	NaN	NaN	NaN	NaN	NaN	NaN	NaN	NaN	NaN	NaN	NaN	NaN	NaN	NaN	NaN	NaN	NaN
